# xmcd
#
# Track frame offsets: 
#        182
#        11400
#        22510
#        30950
#        38670
#        51470
#        59870
#        73847
#        83730
#        93967
#        106567
#        120477
#        129167
#        136965
#        145285
#        155060
#        168310
#        177687
#        186437
#        195350
#        203480
#        214197
#        223912
#
# Disc length: 3107 seconds
#
# Revision: 2
# Processed by: cddbd v1.5.2PL0 Copyright (c) Steve Scherf et al.
# Submitted via: ExactAudioCopy v1.0b2
#
DISCID=400c2117
DTITLE=Various Artist - Pan Pipes Of The Andes
DYEAR=1995
DGENRE=Blues
TTITLE0=El Condor Pasa
TTITLE1=La Marcha
TTITLE2=Servania
TTITLE3=Sikureada
TTITLE4=Quiaquenta
TTITLE5=La Bruja
TTITLE6=Llamada De Los Buitres
TTITLE7=Misteru
TTITLE8=Iendo Con El Viento
TTITLE9=Canto Del Cuculi
TTITLE10=Rogativa Del Longcomeo
TTITLE11=Moyobambra
TTITLE12=Huayno De La Roca
TTITLE13=Anata
TTITLE14=El Chuianco
TTITLE15=Illampu
TTITLE16=Rosita
TTITLE17=Primavera
TTITLE18=Las Chullpas
TTITLE19=El Indio Del Antiplano
TTITLE20=Titicaca
TTITLE21=La Chicha De Punata
TTITLE22=La Muerte Del Inca
EXTD=
EXTT0=
EXTT1=
EXTT2=
EXTT3=
EXTT4=
EXTT5=
EXTT6=
EXTT7=
EXTT8=
EXTT9=
EXTT10=
EXTT11=
EXTT12=
EXTT13=
EXTT14=
EXTT15=
EXTT16=
EXTT17=
EXTT18=
EXTT19=
EXTT20=
EXTT21=
EXTT22=
PLAYORDER=
